<svg xmlns="http://www.w3.org/2000/svg" viewBox="0 0 512 512" width="512" height="512">
  <rect width="512" height="512" rx="116" fill="#3fa34d"/>
  <rect width="512" height="512" rx="116" fill="url(#g)" opacity=".35"/>
  <defs><linearGradient id="g" x1="0" y1="0" x2="0" y2="1"><stop offset="0" stop-color="#7bd389"/><stop offset="1" stop-color="#2f7d3a"/></linearGradient></defs>
  <g transform="translate(106,118) scale(3)">
    <g><path d="M22 44 C16 10 43 21 51 44 Z" fill="#ffb38a"/><path d="M30 38 C27 22 40 28 45 40 Z" fill="#ffd0de"/></g>
    <g><path d="M78 44 C84 10 57 21 49 44 Z" fill="#ffb38a"/><path d="M70 38 C73 22 60 28 55 40 Z" fill="#ffd0de"/></g>
    <circle cx="50" cy="58" r="38" fill="#ffb38a"/>
    <ellipse cx="42" cy="40" rx="22" ry="13" fill="#fff" opacity=".16"/>
    <ellipse cx="32" cy="72" rx="9" ry="5.5" fill="#ff8fb0" opacity=".5"/>
    <ellipse cx="68" cy="72" rx="9" ry="5.5" fill="#ff8fb0" opacity=".5"/>
    <path d="M16 41 Q50 25 84 41 L84 48 Q50 32 16 48 Z" fill="#2f7d3a"/>
    <path d="M16 44.5 Q50 28.5 84 44.5" stroke="#a8e6b0" stroke-width="2" fill="none"/>
    <circle cx="50" cy="38.5" r="2.6" fill="#fff" opacity=".95"/>
    <g><ellipse cx="37" cy="60" rx="10" ry="12.5" fill="#5b4a52"/><circle cx="33.5" cy="55" r="3.4" fill="#fff"/></g>
    <g><ellipse cx="63" cy="60" rx="10" ry="12.5" fill="#5b4a52"/><circle cx="59.5" cy="55" r="3.4" fill="#fff"/></g>
    <path d="M45 73 h10 l-5 5 Z" fill="#ff8fb0"/>
    <path d="M50 78 q-6 6 -12 1 M50 78 q6 6 12 1" stroke="#0d0c0a" stroke-width="2" fill="none" stroke-linecap="round"/>
  </g>
</svg>
